<?xml version="1.0" encoding="iso-8859-1"?>
<!DOCTYPE svg PUBLIC "-//W3C//DTD SVG 1.1//EN" "http://www.w3.org/Graphics/SVG/1.1/DTD/svg11.dtd">
<svg version="1.1" id="Capa_1" xmlns="http://www.w3.org/2000/svg" xmlns:xlink="http://www.w3.org/1999/xlink"
	 width="800px" height="800px" viewBox="0 0 53.43 53.43" xml:space="preserve" stroke="#0C0310" stroke-width="2"
	>
<g>
	<path d="M7.405,40.711c1.627,0,3.196-0.547,4.478-1.535c1.899,1.582,4.096,2.883,6.466,3.829c-0.212,0.688-0.321,1.4-0.321,2.112
		c0,4.083,3.322,7.404,7.406,7.404c2.521,0,15.61-3.918,22.988-12.633c4.12-4.869,5.71-10.32,4.725-16.203
		C51.22,12.182,39.835,2.227,27.228,1.024c-0.803-0.077-1.603-0.116-2.378-0.116C4.32,0.908,0,27.977,0,33.305
		C0,37.389,3.322,40.711,7.405,40.711z M24.85,3.908c0.681,0,1.385,0.035,2.093,0.102c11.132,1.063,21.56,10.111,23.245,20.172
		c0.834,4.972-0.531,9.604-4.056,13.768c-6.847,8.09-19.203,11.571-20.697,11.571c-2.43,0-4.406-1.976-4.406-4.404
		c0-0.768,0.211-1.512,0.626-2.217c0.232-0.391,0.272-0.867,0.11-1.293c-0.161-0.424-0.507-0.754-0.939-0.896
		c-3.009-0.978-5.753-2.586-7.938-4.653c-0.279-0.265-0.648-0.412-1.031-0.412c-0.025,0-0.051,0-0.075,0.002
		c-0.41,0.021-0.793,0.209-1.061,0.519c-0.858,0.996-2.036,1.544-3.315,1.544c-2.429,0-4.405-1.977-4.405-4.406
		C3,33.012,4.973,3.908,24.85,3.908z"/>
	<path d="M11.753,32.465c3.171,0,5.75-2.58,5.75-5.75c0-3.17-2.579-5.75-5.75-5.75s-5.75,2.58-5.75,5.75
		C6.003,29.887,8.582,32.465,11.753,32.465z M11.753,23.965c1.517,0,2.75,1.233,2.75,2.75s-1.233,2.75-2.75,2.75
		s-2.75-1.232-2.75-2.75S10.236,23.965,11.753,23.965z"/>
	<path d="M20.253,19.84c3.171,0,5.75-2.58,5.75-5.75c0-3.17-2.579-5.75-5.75-5.75s-5.75,2.58-5.75,5.75
		C14.503,17.261,17.082,19.84,20.253,19.84z M20.253,11.34c1.517,0,2.75,1.233,2.75,2.75c0,1.517-1.233,2.75-2.75,2.75
		s-2.75-1.233-2.75-2.75C17.503,12.573,18.736,11.34,20.253,11.34z"/>
	<path d="M34.878,21.215c3.171,0,5.75-2.58,5.75-5.75c0-3.17-2.579-5.75-5.75-5.75s-5.75,2.58-5.75,5.75
		C29.128,18.636,31.707,21.215,34.878,21.215z M34.878,12.715c1.517,0,2.75,1.233,2.75,2.75c0,1.517-1.233,2.75-2.75,2.75
		s-2.75-1.233-2.75-2.75C32.128,13.948,33.361,12.715,34.878,12.715z"/>
	<path d="M35.42,28.268c0,3.17,2.579,5.75,5.75,5.75s5.75-2.58,5.75-5.75c0-3.17-2.579-5.75-5.75-5.75S35.42,25.097,35.42,28.268z
		 M41.17,25.517c1.518,0,2.75,1.233,2.75,2.75c0,1.517-1.232,2.75-2.75,2.75s-2.75-1.233-2.75-2.75
		C38.42,26.75,39.652,25.517,41.17,25.517z"/>
	<path d="M31.628,45.184c3.171,0,5.75-2.58,5.75-5.75s-2.579-5.75-5.75-5.75s-5.75,2.58-5.75,5.75S28.457,45.184,31.628,45.184z
		 M31.628,36.684c1.517,0,2.75,1.233,2.75,2.75c0,1.518-1.233,2.75-2.75,2.75s-2.75-1.232-2.75-2.75
		C28.878,37.917,30.111,36.684,31.628,36.684z"/>
</g>
</svg>